# xmcd
#
# Track frame offsets:
#	150
#	9440
#	26012
#	37895
#	51147
#	64577
#	81560
#	92182
#	108125
#	122672
#	134975
#	145782
#
# Disc length: 2069
#
# Revision: 2
# Processed by: cddbd v1.5.1PL0 Copyright (c) Steve Scherf et al.
# Submitted via: CDex 1.30
# Normalized: r1:TDELIM( - )
#
DISCID=a108130c
DTITLE=Various Artist - Country Jukebox
DYEAR=1990
DGENRE=Country
TTITLE0=Willie Nelson - If You've Got the Money I've Got the Time
TTITLE1=Ray Price - I Won't Mention it Again
TTITLE2=Johnny Paycheck - Take this Job and Shove it
TTITLE3=Lynn Anderson - Rose Garden
TTITLE4=Tammy Wynette - Woman to Woman
TTITLE5=George Jones - Bartender's Blues
TTITLE6=George Jones - Nothing ever Hurt Me
TTITLE7=Marty Robbins - My Woman, My Woman, My Wife
TTITLE8=Johnny Cash - Happy to be With You
TTITLE9=Charlie Rich - The Most Beautiful Girl
TTITLE10=Tanya Tucker - Would you Lay With Me
TTITLE11=Barbara Mandrell - Tonight My Baby's Coming Home
EXTD=\nYEAR: 1990  ID3G:   2
EXTT0=
EXTT1=
EXTT2=
EXTT3=
EXTT4=
EXTT5=
EXTT6=
EXTT7=
EXTT8=
EXTT9=
EXTT10=
EXTT11=
PLAYORDER=
